<?xml version="1.0" encoding="utf-8"?>
<!-- Generator: Adobe Illustrator 23.0.3, SVG Export Plug-In . SVG Version: 6.00 Build 0)  -->
<svg version="1.1" id="Layer_1" xmlns="http://www.w3.org/2000/svg" xmlns:xlink="http://www.w3.org/1999/xlink" x="0px" y="0px"
	 viewBox="0 0 200.4 66.5" style="enable-background:new 0 0 200.4 66.5;" xml:space="preserve">
<style type="text/css">
	.st0{fill:#8C98A4;}
</style>
<g>
	<path class="st0" d="M141.2,15.1h-10.6c-0.2,0-0.5,0.2-0.5,0.5v6.1c0,0.2,0.2,0.5,0.5,0.5h10.6c0.2,0,0.5-0.2,0.5-0.5v-6.1
		C141.8,15.4,141.6,15.1,141.2,15.1z M141.1,24.3h-20.5c-0.2,0-0.6,0.2-0.7,0.5l-2.7,10l-0.1,0.5l-3.1-10.7
		c-0.1-0.2-0.4-0.5-0.7-0.5h-8c-0.2,0-0.6,0.2-0.7,0.5l-3,10l-0.1,0.5l-0.1-0.2l-1.2-4.9l-1.3-4.9c-0.1-0.2-0.4-0.5-0.7-0.5H82v-8.7
		c0-0.2-0.4-0.6-0.7-0.5l-10.1,3.1c-0.4,0.1-0.5,0.2-0.5,0.5v5.4H68c-0.2,0-0.5,0.2-0.5,0.5v7.7c0,0.2,0.2,0.5,0.5,0.5h2.7v9.4
		c0,6.6,3.6,9.8,10.2,9.8c2.8,0,5.4-0.6,7.2-1.6v-8c0-0.4-0.4-0.5-0.6-0.5c-1.1,0.5-1.9,0.6-2.9,0.6c-1.8,0-2.8-0.7-2.8-2.8v-6.9
		h5.8c0.2,0,0.5-0.2,0.5-0.5v-6.5l7.6,25.2c0.1,0.2,0.4,0.5,0.7,0.5h8.4c0.2,0,0.6-0.2,0.7-0.5l3.6-11.2l1.8,5.8l1.7,5.3
		c0.1,0.2,0.4,0.5,0.7,0.5h8.4c0.2,0,0.6-0.2,0.7-0.5l7.7-25.3v25.3c0,0.2,0.2,0.5,0.5,0.5h10.2c0.2,0,0.5-0.2,0.5-0.5V24.9
		C141.6,24.5,141.3,24.3,141.1,24.3L141.1,24.3z M154.6,15.1h-10.2c-0.2,0-0.5,0.2-0.5,0.5v35.6c0,0.2,0.2,0.5,0.5,0.5h10.2
		c0.2,0,0.5-0.2,0.5-0.5V15.6C155.1,15.4,154.8,15.1,154.6,15.1z M168.2,15.1h-10.6c-0.2,0-0.5,0.2-0.5,0.5v6.1
		c0,0.2,0.2,0.5,0.5,0.5h10.6c0.2,0,0.5-0.2,0.5-0.5v-6.1C168.8,15.4,168.6,15.1,168.2,15.1z M168.1,24.3h-10.2
		c-0.2,0-0.5,0.2-0.5,0.5v26.4c0,0.2,0.2,0.5,0.5,0.5h10.2c0.2,0,0.5-0.2,0.5-0.5V24.9C168.6,24.5,168.3,24.3,168.1,24.3z
		 M185.1,23.7c-9,0-15.4,6.6-15.4,14.3v0.1c0,7.7,6.4,14.2,15.3,14.2c9,0,15.4-6.6,15.4-14.3v-0.1C200.4,30.2,194,23.7,185.1,23.7z
		 M189.4,38c0,2.7-1.8,4.7-4.3,4.7s-4.5-2.2-4.5-4.8v-0.1c0-2.7,1.8-4.7,4.3-4.7C187.5,33.1,189.4,35.3,189.4,38z M30.1,3.3
		C13.5,3.3,0,16.8,0,33.5s13.5,30.1,30.1,30.1s30.1-13.5,30.1-30.1S46.8,3.3,30.1,3.3z M30.1,55.6C17.8,55.6,8,45.8,8,33.5
		s9.9-22.2,22.2-22.2s22.2,9.9,22.2,22.2S42.4,55.6,30.1,55.6z"/>
	<circle class="st0" cx="37.6" cy="26" r="6.3"/>
	<circle class="st0" cx="37.6" cy="40.9" r="6.3"/>
	<circle class="st0" cx="22.7" cy="40.9" r="6.3"/>
	<circle class="st0" cx="22.7" cy="26" r="6.3"/>
</g>
</svg>
