<?xml version="1.0" encoding="utf-8"?>
<!-- Generator: Adobe Illustrator 23.1.1, SVG Export Plug-In . SVG Version: 6.00 Build 0)  -->
<svg version="1.1" xmlns="http://www.w3.org/2000/svg" xmlns:xlink="http://www.w3.org/1999/xlink" x="0px" y="0px"
	 viewBox="0 0 300 300" style="enable-background:new 0 0 300 300;" xml:space="preserve">
<style type="text/css">
	.st0{display:none;}
	.st1{fill:#0052CC;}
	.st2{fill:url(#SVGID_1_);}
	.st3{fill:#2684FF;}
</style>
<g id="Guides__x26__Notes">
	<g>
	</g>
</g>
<g id="Backgrounds" class="st0">
</g>
<g id="Logos">
	<g>
		<g>
			<g>
				<path class="st1" d="M141.2,243.4c0,3.6,1.7,6.4,8.2,7.7c3.9,0.8,4.7,1.4,4.7,2.7c0,1.3-0.8,2.1-3.6,2.1c-3.2,0-7-1.1-9.4-2.6
					v5.9c2,1,4.6,2,9.4,2c6.8,0,9.5-3,9.5-7.6 M160,253.7c0-4.3-2.3-6.3-8.6-7.6c-3.5-0.8-4.4-1.6-4.4-2.7c0-1.4,1.3-2,3.6-2
					c2.8,0,5.6,0.9,8.2,2v-5.6c-1.9-0.9-4.7-1.7-8-1.7c-6.3,0-9.6,2.7-9.6,7.2"/>
				<polygon class="st1" points="228.8,236.5 228.8,260.9 234,260.9 234,242.3 236.2,247.2 243.5,260.9 250,260.9 250,236.5 
					244.8,236.5 244.8,252.2 242.9,247.7 237,236.5 				"/>
				<rect x="190.1" y="236.5" class="st1" width="5.7" height="24.3"/>
				<path class="st1" d="M183.6,253.7c0-4.3-2.3-6.3-8.6-7.6c-3.5-0.8-4.4-1.6-4.4-2.7c0-1.4,1.3-2,3.6-2c2.8,0,5.6,0.9,8.2,2v-5.6
					c-1.9-0.9-4.7-1.7-8-1.7c-6.3,0-9.6,2.7-9.6,7.2c0,3.6,1.7,6.4,8.2,7.7c3.9,0.8,4.7,1.4,4.7,2.7c0,1.3-0.8,2.1-3.6,2.1
					c-3.2,0-7-1.1-9.4-2.6v5.9c2,1,4.6,2,9.4,2C180.9,261.2,183.6,258.2,183.6,253.7"/>
				<polygon class="st1" points="97.2,236.5 97.2,260.9 108.9,260.9 110.7,255.6 102.9,255.6 102.9,236.5 				"/>
				<polygon class="st1" points="74.2,236.5 74.2,241.8 80.5,241.8 80.5,260.9 86.2,260.9 86.2,241.8 93,241.8 93,236.5 				"/>
			</g>
		</g>
		<path class="st1" d="M66,236.5h-7.5L50,260.9h6.5l1.2-4.1c1.4,0.4,3,0.7,4.5,0.7c1.6,0,3.1-0.2,4.5-0.7l1.2,4.1h6.5L66,236.5z
			 M62.2,252.4c-1.1,0-2.1-0.2-3.1-0.4l3.1-10.6l3.1,10.6C64.3,252.2,63.3,252.4,62.2,252.4z"/>
		<path class="st1" d="M129,236.5h-7.5l-8.5,24.3h6.5l1.2-4.1c1.4,0.4,3,0.7,4.5,0.7c1.6,0,3.1-0.2,4.5-0.7l1.2,4.1h6.5L129,236.5z
			 M125.2,252.4c-1.1,0-2.1-0.2-3.1-0.4l3.1-10.6l3.1,10.6C127.3,252.2,126.3,252.4,125.2,252.4z"/>
		<path class="st1" d="M216.2,236.5h-7.5l-8.5,24.3h6.5l1.2-4.1c1.4,0.4,3,0.7,4.5,0.7c1.6,0,3.1-0.2,4.5-0.7l1.2,4.1h6.5
			L216.2,236.5z M212.5,252.4c-1.1,0-2.1-0.2-3.1-0.4l3.1-10.6l3.1,10.6C214.6,252.2,213.6,252.4,212.5,252.4z"/>
	</g>
	
		<linearGradient id="SVGID_1_" gradientUnits="userSpaceOnUse" x1="141.09" y1="13188.1357" x2="93.8961" y2="13106.3662" gradientTransform="matrix(1 0 0 -1 0 13324.6943)">
		<stop  offset="0" style="stop-color:#0052CC"/>
		<stop  offset="0.92" style="stop-color:#2684FF"/>
	</linearGradient>
	<path class="st2" d="M116.5,122.9c-1.7-2.3-5-2.7-7.3-1c-0.7,0.5-1.2,1.2-1.6,1.9L63,213.2c-1.3,2.6-0.3,5.9,2.4,7.2
		c0.7,0.4,1.6,0.6,2.4,0.6H130c2.1,0,3.9-1.2,4.8-3C148.2,190.4,140.1,148.1,116.5,122.9z"/>
	<path class="st3" d="M149.3,41.6c-22.7,34.9-25.3,79.1-6.9,116.5l30.2,59.9c0.9,1.8,2.7,3,4.8,3h62.3c3-0.3,5.3-2.9,5-5.9
		c0-0.6-0.2-1.2-0.4-1.7L158.4,41.6c-1.2-2.5-4.2-3.6-6.7-2.4C150.7,39.8,149.8,40.6,149.3,41.6z"/>
</g>
</svg>
