<?xml version="1.0" encoding="utf-8"?>
<!-- Generator: Adobe Illustrator 23.0.3, SVG Export Plug-In . SVG Version: 6.00 Build 0)  -->
<svg xmlns="http://www.w3.org/2000/svg" xmlns:xlink="http://www.w3.org/1999/xlink" x="0px" y="0px"
	 viewBox="0 0 120 120" style="enable-background:new 0 0 120 120;" xml:space="preserve">
<style type="text/css">
	.icon-white-64-0{fill:none;stroke:#FFFFFF;}
	.icon-white-64-1{fill:#FFFFFF;}
	.icon-white-64-2{fill:none;stroke:#377DFF;}
</style>
<polyline class="icon-white-64-0 fill-none stroke-white" stroke-width="3" stroke-linecap="round" stroke-linejoin="round" stroke-miterlimit="10" points="64.8,49.5 64.8,91.3 1.6,81.4 1.6,11.6 "/>
<polyline class="icon-white-64-0 fill-none stroke-white" stroke-width="3" stroke-linecap="round" stroke-linejoin="round" stroke-miterlimit="10" points="1.6,11.6 64.8,21.5 64.8,34.6 "/>
<polyline class="icon-white-64-0 fill-none stroke-white" stroke-width="3" stroke-linecap="round" stroke-linejoin="round" stroke-miterlimit="10" points="105.7,10.3 105.7,79.4 64.8,91.3 "/>
<line class="icon-white-64-0 fill-none stroke-white" stroke-width="3" stroke-linecap="round" stroke-linejoin="round" stroke-miterlimit="10" x1="64.8" y1="21.5" x2="105.7" y2="10.3"/>
<polyline class="icon-white-64-0 fill-none stroke-white" stroke-width="3" stroke-linecap="round" stroke-linejoin="round" stroke-miterlimit="10" points="1.6,11.6 42.4,1.7 105.7,10.3 "/>
<circle class="icon-white-64-1 fill-white" opacity=".3" cx="92.8" cy="92.8" r="27.2"/>
<circle class="icon-white-64-1 fill-white" cx="82.8" cy="84.3" r="27.2"/>
<path class="icon-white-64-2 fill-none stroke-primary" stroke-width="3" stroke-linecap="round" stroke-linejoin="round" stroke-miterlimit="10" d="M81.2,76.5h6.7c4.3,0,7.8,3.5,7.8,7.8v0c0,4.3-3.5,7.8-7.8,7.8h-18"/>
<polyline class="icon-white-64-2 fill-none stroke-primary" stroke-width="3" stroke-linecap="round" stroke-linejoin="round" stroke-miterlimit="10" points="85.5,80.7 81.2,76.5 85.5,72.2 "/>
<line class="icon-white-64-0 fill-none stroke-white" stroke-width="3" stroke-linecap="round" stroke-linejoin="round" stroke-miterlimit="10" x1="79.9" y1="17.3" x2="79.9" y2="34.6"/>
<line class="icon-white-64-0 fill-none stroke-white" stroke-width="3" stroke-linecap="round" stroke-linejoin="round" stroke-miterlimit="10" x1="85" y1="33" x2="79.9" y2="34.6"/>
<line class="icon-white-64-0 fill-none stroke-white" stroke-width="3" stroke-linecap="round" stroke-linejoin="round" stroke-miterlimit="10" x1="95" y1="29.9" x2="91.2" y2="31.1"/>
<line class="icon-white-64-0 fill-none stroke-white" stroke-width="3" stroke-linecap="round" stroke-linejoin="round" stroke-miterlimit="10" x1="95" y1="13.3" x2="95" y2="29.7"/>
<line class="icon-white-64-0 fill-none stroke-white" stroke-width="3" stroke-linecap="round" stroke-linejoin="round" stroke-miterlimit="10" x1="38.5" y1="64.6" x2="38.5" y2="75.5"/>
<line class="icon-white-64-0 fill-none stroke-white" stroke-width="3" stroke-linecap="round" stroke-linejoin="round" stroke-miterlimit="10" x1="46.1" y1="65.6" x2="46.1" y2="76.5"/>
<circle class="icon-white-64-0 fill-none stroke-white" stroke-width="3" stroke-linecap="round" stroke-linejoin="round" stroke-miterlimit="10" opacity=".5" cx="24.8" cy="29.3" r="3.1"/>
<circle class="icon-white-64-0 fill-none stroke-white" stroke-width="3" stroke-linecap="round" stroke-linejoin="round" stroke-miterlimit="10" cx="13.4" cy="27.1" r="3.1"/>
</svg>
