<?xml version="1.0" encoding="utf-8"?>
<!-- Generator: Adobe Illustrator 23.0.3, SVG Export Plug-In . SVG Version: 6.00 Build 0)  -->
<svg xmlns="http://www.w3.org/2000/svg" xmlns:xlink="http://www.w3.org/1999/xlink" x="0px" y="0px"
	 viewBox="0 0 120 120" style="enable-background:new 0 0 120 120;" xml:space="preserve">
<style type="text/css">
	.icon-white-66-0{fill:none;stroke:#FFFFFF;}
	.icon-white-66-1{fill:#FFFFFF;}
	.icon-white-66-2{fill:#377DFF;}
</style>
<polygon class="icon-white-66-0 fill-none stroke-white" stroke-width="3" stroke-linecap="round" stroke-linejoin="round" stroke-miterlimit="10" points="102.6,89.5 42.8,89.5 17.7,32.1 2.1,32.1 2.1,24.9 22.4,24.9 47.5,82.3 102.6,82.3 "/>
<path class="icon-white-66-1 fill-white" d="M66.7,107.4c0,5.9-4.8,10.8-10.8,10.8s-10.8-4.8-10.8-10.8S50,96.7,55.9,96.7S66.7,101.5,66.7,107.4z"/>
<path class="icon-white-66-1 fill-white" d="M102.6,107.4c0,5.9-4.8,10.8-10.8,10.8S81,113.4,81,107.4s4.8-10.8,10.8-10.8S102.6,101.5,102.6,107.4z"/>
<path class="icon-white-66-2 fill-primary" d="M95.1,107.4c0,1.8-1.5,3.3-3.3,3.3s-3.3-1.5-3.3-3.3s1.5-3.3,3.3-3.3S95.1,105.6,95.1,107.4z"/>
<path class="icon-white-66-2 fill-primary" d="M59.2,107.4c0,1.8-1.5,3.3-3.3,3.3c-1.8,0-3.3-1.5-3.3-3.3s1.5-3.3,3.3-3.3C57.7,104.2,59.2,105.6,59.2,107.4z"
	/>
<circle class="icon-white-66-1 fill-white" opacity="0.3" cx="95.1" cy="30.3" r="24.9"/>
<circle class="icon-white-66-2 fill-primary" cx="91.8" cy="26.9" r="24.9"/>
<path class="icon-white-66-1 fill-white" d="M91.8,1.8C77.9,1.8,66.7,13,66.7,26.9S77.9,52,91.8,52s25.1-11.2,25.1-25.1S105.7,1.8,91.8,1.8z M104.5,34.5
	l-5.1,5.1L91.8,32l-7.6,7.6l-5.1-5.1l7.6-7.6l-7.6-7.6l5.1-5.1l7.6,7.6l7.6-7.6l5.1,5.1l-7.6,7.6L104.5,34.5z"/>
<path class="icon-white-66-1 fill-white" d="M91.8,60.8c-13.7,0-25.4-8.7-30-20.8c-0.2-0.4-0.6-0.7-1-0.7H39.6c-0.8,0-1.3,0.8-1,1.5L52,74.4
	c0.2,0.4,0.6,0.7,1,0.7h48.7c0.5,0,0.9-0.3,1-0.7l6.7-16.7c0.4-1-0.7-1.9-1.6-1.4C103.2,59.2,97.7,60.8,91.8,60.8z"/>
</svg>
